<mxfile host="app.diagrams.net" modified="2021-05-26T13:02:38.168Z" agent="5.0 (Windows NT 10.0; Win64; x64) AppleWebKit/537.36 (KHTML, like Gecko) Chrome/90.0.4430.212 Safari/537.36" etag="D85mm-z_l9j1ug_ZhnQo" version="14.7.1" type="github">
  <diagram id="FLws0Va1AgkbDDRm26dX" name="Page-1">
    <mxGraphModel dx="1102" dy="1714" grid="1" gridSize="10" guides="1" tooltips="1" connect="1" arrows="1" fold="1" page="1" pageScale="1" pageWidth="850" pageHeight="1100" math="0" shadow="0">
      <root>
        <mxCell id="0" />
        <mxCell id="1" parent="0" />
        <mxCell id="6aiVIN63TPeD5is2aV9m-3" style="edgeStyle=orthogonalEdgeStyle;rounded=0;orthogonalLoop=1;jettySize=auto;html=1;" edge="1" parent="1" source="6aiVIN63TPeD5is2aV9m-1">
          <mxGeometry relative="1" as="geometry">
            <mxPoint x="230" y="-910" as="targetPoint" />
          </mxGeometry>
        </mxCell>
        <mxCell id="6aiVIN63TPeD5is2aV9m-1" value="start" style="ellipse;whiteSpace=wrap;html=1;" vertex="1" parent="1">
          <mxGeometry x="170" y="-1080" width="120" height="80" as="geometry" />
        </mxCell>
        <mxCell id="6aiVIN63TPeD5is2aV9m-6" style="edgeStyle=orthogonalEdgeStyle;rounded=0;orthogonalLoop=1;jettySize=auto;html=1;" edge="1" parent="1" source="6aiVIN63TPeD5is2aV9m-2">
          <mxGeometry relative="1" as="geometry">
            <mxPoint x="220" y="-760" as="targetPoint" />
          </mxGeometry>
        </mxCell>
        <mxCell id="6aiVIN63TPeD5is2aV9m-2" value="a,b=0,c&lt;br&gt;x=a" style="shape=parallelogram;perimeter=parallelogramPerimeter;whiteSpace=wrap;html=1;fixedSize=1;" vertex="1" parent="1">
          <mxGeometry x="160" y="-910" width="120" height="60" as="geometry" />
        </mxCell>
        <mxCell id="6aiVIN63TPeD5is2aV9m-13" style="edgeStyle=orthogonalEdgeStyle;rounded=0;orthogonalLoop=1;jettySize=auto;html=1;exitX=0.5;exitY=1;exitDx=0;exitDy=0;" edge="1" parent="1" source="6aiVIN63TPeD5is2aV9m-4">
          <mxGeometry relative="1" as="geometry">
            <mxPoint x="220" y="-630" as="targetPoint" />
          </mxGeometry>
        </mxCell>
        <mxCell id="6aiVIN63TPeD5is2aV9m-18" style="edgeStyle=orthogonalEdgeStyle;rounded=0;orthogonalLoop=1;jettySize=auto;html=1;" edge="1" parent="1" source="6aiVIN63TPeD5is2aV9m-4" target="6aiVIN63TPeD5is2aV9m-19">
          <mxGeometry relative="1" as="geometry">
            <mxPoint x="430" y="-720" as="targetPoint" />
          </mxGeometry>
        </mxCell>
        <mxCell id="6aiVIN63TPeD5is2aV9m-4" value="a&amp;gt;0" style="rhombus;whiteSpace=wrap;html=1;" vertex="1" parent="1">
          <mxGeometry x="165" y="-760" width="110" height="80" as="geometry" />
        </mxCell>
        <mxCell id="6aiVIN63TPeD5is2aV9m-19" value="c=a%10&lt;br&gt;b=b*10+c&lt;br&gt;a=(a-c)/10" style="rounded=0;whiteSpace=wrap;html=1;" vertex="1" parent="1">
          <mxGeometry x="370" y="-750" width="120" height="60" as="geometry" />
        </mxCell>
        <mxCell id="6aiVIN63TPeD5is2aV9m-20" value="true" style="text;html=1;align=center;verticalAlign=middle;resizable=0;points=[];autosize=1;strokeColor=none;" vertex="1" parent="1">
          <mxGeometry x="280" y="-740" width="40" height="20" as="geometry" />
        </mxCell>
      </root>
    </mxGraphModel>
  </diagram>
</mxfile>
